<svg xmlns="http://www.w3.org/2000/svg" width="20.982" height="20.982" viewBox="0 0 20.982 20.982"><defs></defs><path class="a" d="M468.9,601.13H453.341a2.714,2.714,0,0,0-2.711,2.711V619.4a2.711,2.711,0,0,0,2.711,2.708H468.9a2.752,2.752,0,0,0,.876-.146l-5.529-5.529,1.647-1.647,5.55,5.55a2.71,2.71,0,0,0,.164-.929V603.841a2.711,2.711,0,0,0-2.708-2.711Zm-15.975,10.346V603.54h8.1l2.43,2.43-8.018,8.015Zm13.6-.427-6.184,6.184a1.168,1.168,0,0,1-1.63,0L457,615.516l8.015-8.018,1.516,1.513a1.46,1.46,0,0,1,0,2.039Z" transform="translate(-450.63 -601.13)" /></svg>